<?xml version="1.0" encoding="UTF-8" standalone="no"?>
<!-- Created with Inkscape (http://www.inkscape.org/) -->

<svg
   width="40.551716mm"
   height="4.6675596mm"
   viewBox="0 0 40.551716 4.6675596"
   version="1.1"
   id="svg5"
   xmlns="http://www.w3.org/2000/svg"
   xmlns:svg="http://www.w3.org/2000/svg">
  <defs
     id="defs2" />
  <g
     id="layer1"
     transform="translate(-45.563391,-44.855165)">
    <path
       style="fill:#000000;stroke-width:0.0846667"
       d="m 45.940771,49.414619 c -0.453694,-0.249634 -0.483785,-0.643076 -0.16813,-2.19831 0.274603,-1.352967 0.353333,-1.590844 0.622843,-1.881868 0.447233,-0.482936 0.418401,-0.479275 3.774416,-0.479275 2.981649,0 3.100715,0.0062 3.263871,0.169333 0.211902,0.211903 0.221588,0.660879 0.02603,1.2065 l -0.144144,0.402167 h -1.336705 -1.336706 l 0.168098,-0.426468 c 0.09245,-0.234557 0.168097,-0.444107 0.168097,-0.465666 0,-0.02156 -0.505738,-0.0392 -1.123862,-0.0392 h -1.123863 l -0.283114,1.37374 c -0.155712,0.755558 -0.30175,1.422308 -0.324529,1.481667 -0.03209,0.08361 0.178596,0.107926 0.935218,0.107926 h 0.976633 l 0.05144,-0.486833 c 0.02829,-0.267759 0.07147,-0.648759 0.09595,-0.846667 l 0.04451,-0.359833 h 1.309504 1.309503 l -0.05139,0.529166 c -0.02827,0.291042 -0.07695,0.853017 -0.108192,1.248834 l -0.0568,0.719666 -3.259666,0.01915 c -2.246458,0.01319 -3.312301,-0.0098 -3.429,-0.07403 z m 7.860301,-0.123478 c -0.126368,-0.192861 -0.132575,-0.290912 -0.04922,-0.777532 0.101467,-0.592355 0.29066,-0.926046 0.621415,-1.096028 0.136577,-0.07019 0.655986,-0.104996 1.579338,-0.105833 1.165964,-0.0011 1.375833,-0.02062 1.375833,-0.128249 0,-0.107449 -0.202877,-0.127 -1.317899,-0.127 -0.74655,0 -1.388897,-0.038 -1.481667,-0.08765 -0.183059,-0.09797 -0.21771,-0.417212 -0.06217,-0.572755 0.118604,-0.118604 4.776717,-0.146386 4.960825,-0.02959 0.24313,0.154244 0.239417,0.546555 -0.0175,1.848506 l -0.255903,1.296815 h -2.604226 -2.604226 z m 3.274521,-0.689475 c 6.77e-4,-0.08149 0.02413,-0.233892 0.05221,-0.338667 0.04889,-0.182434 0.02901,-0.1905 -0.46948,-0.1905 -0.342593,0 -0.531678,0.03618 -0.553137,0.105834 -0.01793,0.05821 -0.05556,0.210608 -0.08362,0.338666 l -0.05102,0.232834 h 0.551946 c 0.468778,0 0.552121,-0.02233 0.553101,-0.148167 z m 2.822683,0.718139 c 0.02651,-0.105615 0.165706,-0.76284 0.309329,-1.4605 0.143623,-0.69766 0.281203,-1.335686 0.305735,-1.417837 0.04156,-0.13919 0.224407,-0.147841 2.68435,-0.127 l 2.639747,0.02237 0.02608,0.269074 c 0.0191,0.197116 -0.05769,0.395237 -0.287153,0.740833 l -0.313231,0.471759 h -1.131012 c -0.622057,0 -1.131013,-0.02107 -1.131013,-0.04683 0,-0.02575 0.09601,-0.187679 0.213364,-0.359833 l 0.213365,-0.313008 -0.349177,-0.02647 c -0.192047,-0.01456 -0.36731,-0.0083 -0.389473,0.01383 -0.03748,0.03748 -0.209177,0.782656 -0.446724,1.938802 l -0.100028,0.486834 H 60.996256 59.85008 Z m 6.197962,0.0039 c -0.171572,-0.244954 -0.16659,-0.404811 0.04354,-1.396945 0.225789,-1.066051 0.304715,-1.262125 0.589739,-1.46508 0.210919,-0.150188 0.376563,-0.167137 1.633464,-0.167137 h 1.398742 l 0.157055,-0.6985 0.157056,-0.6985 1.119299,-0.02362 c 0.961227,-0.02029 1.119299,-0.0052 1.119299,0.10665 0,0.07165 -0.20955,1.106222 -0.465667,2.299046 -0.256117,1.192823 -0.465667,2.183056 -0.465667,2.200516 0,0.01746 -1.159889,0.03175 -2.577532,0.03175 -2.567569,0 -2.578042,-7.28e-4 -2.709333,-0.188172 z m 3.170199,-0.610626 c 0,-0.04161 0.230041,-1.174498 0.29769,-1.466036 0.04208,-0.181351 0.01973,-0.1905 -0.465411,-0.1905 -0.280287,0 -0.509612,0.01656 -0.509612,0.0368 0,0.04161 -0.230041,1.174497 -0.29769,1.466035 -0.04208,0.181352 -0.01973,0.1905 0.46541,0.1905 0.280287,0 0.509613,-0.01656 0.509613,-0.0368 z m 3.182439,0.667141 c -0.08039,-0.08038 -0.134439,-0.278279 -0.134439,-0.492188 0,-0.527333 0.320882,-1.925936 0.497901,-2.170155 0.29664,-0.409254 0.400451,-0.423704 2.885562,-0.401642 l 2.325128,0.02064 0.126577,0.225587 c 0.113835,0.20288 0.109798,0.313675 -0.04011,1.100667 l -0.166685,0.875079 -1.671187,0.02296 c -1.017985,0.01398 -1.671188,0.05535 -1.671188,0.105833 0,0.04991 0.448273,0.08288 1.126817,0.08288 1.305559,0 1.509997,0.07158 1.366923,0.478599 l -0.08474,0.241067 -2.213062,0.02256 c -1.928592,0.01966 -2.230344,0.0053 -2.347501,-0.111881 z m 3.36311,-1.625177 c 0.01992,-0.03493 0.06199,-0.206375 0.0935,-0.381 l 0.05729,-0.3175 h -0.50684 c -0.278762,0 -0.523135,0.02857 -0.54305,0.0635 -0.01992,0.03493 -0.06199,0.206375 -0.0935,0.381 l -0.05729,0.3175 h 0.50684 c 0.278761,0 0.523134,-0.02858 0.54305,-0.0635 z m 2.682555,1.653458 c -3.1e-4,-0.05956 0.13972,-0.784566 0.311178,-1.611124 l 0.311741,-1.502834 h 2.530726 c 1.47952,0 2.59469,0.03424 2.68474,0.08243 0.27753,0.148525 0.27643,0.483007 -0.006,1.832696 l -0.27252,1.302204 h -1.12864 c -0.84784,0 -1.128,-0.02633 -1.12607,-0.105834 0.001,-0.05821 0.11132,-0.610658 0.24423,-1.227666 l 0.24166,-1.121834 h -0.52764 -0.52765 l -0.24575,1.2065 -0.245756,1.2065 -1.121833,0.02362 c -0.866689,0.01825 -1.121962,-10e-4 -1.122396,-0.08467 z m 6.385515,-0.107674 c -0.27422,-0.418504 0.12963,-1.05895 0.66774,-1.05895 0.35089,0 0.56731,0.216154 0.56731,0.566621 0,0.607763 -0.9193,0.974224 -1.23505,0.492329 z"
       id="path1041" />
  </g>
</svg>
