<?xml version="1.0" encoding="UTF-8" standalone="no"?>
<!-- Created with Inkscape (http://www.inkscape.org/) -->

<svg
   width="134.03419mm"
   height="15.5728mm"
   viewBox="0 0 134.03419 15.5728"
   version="1.1"
   id="svg5"
   inkscape:version="1.1.1 (3bf5ae0d25, 2021-09-20)"
   sodipodi:docname="garden.svg"
   xmlns:inkscape="http://www.inkscape.org/namespaces/inkscape"
   xmlns:sodipodi="http://sodipodi.sourceforge.net/DTD/sodipodi-0.dtd"
   xmlns="http://www.w3.org/2000/svg"
   xmlns:svg="http://www.w3.org/2000/svg">
  <sodipodi:namedview
     id="namedview7"
     pagecolor="#ffffff"
     bordercolor="#666666"
     borderopacity="1.0"
     inkscape:pageshadow="2"
     inkscape:pageopacity="0.0"
     inkscape:pagecheckerboard="0"
     inkscape:document-units="mm"
     showgrid="false"
     fit-margin-top="0"
     fit-margin-left="0"
     fit-margin-right="0"
     fit-margin-bottom="0"
     inkscape:zoom="0.72337262"
     inkscape:cx="352.51542"
     inkscape:cy="343.52973"
     inkscape:window-width="1920"
     inkscape:window-height="1001"
     inkscape:window-x="-9"
     inkscape:window-y="-9"
     inkscape:window-maximized="1"
     inkscape:current-layer="layer1" />
  <defs
     id="defs2" />
  <g
     inkscape:label="Layer 1"
     inkscape:groupmode="layer"
     id="layer1"
     transform="translate(-5.0160074,-57.736198)">
    <path
       style="fill:#000000;stroke-width:0.060689"
       d="m 136.06946,73.249818 c -0.43791,-0.12309 -0.76787,-0.38447 -0.96863,-0.76734 -0.15944,-0.30404 -0.17275,-0.37725 -0.15436,-0.84861 0.0165,-0.42174 0.0526,-0.58229 0.19832,-0.87999 0.24386,-0.49836 0.77399,-1.01642 1.29039,-1.26101 0.36983,-0.17517 0.46962,-0.19552 0.95898,-0.19552 0.60914,0 0.84463,0.0817 1.17966,0.40925 1.18737,1.16087 0.002,3.44312 -1.86902,3.59734 -0.19455,0.016 -0.46884,-0.007 -0.63534,-0.0541 z M 7.7625153,73.107728 c -1.180607,-0.16327 -2.199147,-0.8464 -2.51311,-1.68554 -0.179774,-0.48049 -0.268318,-1.13734 -0.220622,-1.63664 0.06524,-0.68299 1.650393,-8.13886 1.849913,-8.70122 0.573906,-1.61756 1.842887,-2.71098 3.6945227,-3.18339 l 0.52719,-0.1345 h 9.073001 c 8.478801,0 9.100392,0.007 9.491235,0.10733 1.233998,0.31665 1.791446,0.94475 1.843815,2.07748 0.03339,0.72219 -0.068,1.13569 -0.606361,2.47307 l -0.433638,1.07723 h -4.21334 c -3.346956,0 -4.206883,-0.0156 -4.181943,-0.0759 0.804853,-1.94474 1.19537,-2.90076 1.19537,-2.92638 0,-0.0177 -1.773313,-0.0322 -3.940694,-0.0322 -3.700855,0 -3.942567,0.006 -3.971476,0.10621 -0.04016,0.13855 -2.101511,9.81922 -2.101511,9.86926 0,0.021 1.523235,0.0382 3.384967,0.0382 H 20.0248 l 0.238326,-2.79169 0.238326,-2.79169 h 4.204424 4.204424 l -0.03155,0.25793 c -0.0454,0.37112 -0.633701,7.64606 -0.633701,7.8364 v 0.15937 l -10.150231,-0.009 c -5.582627,-0.005 -10.2321607,-0.0204 -10.3322977,-0.0343 z m 25.9987607,-0.0479 c -0.520076,-0.10364 -0.947481,-0.32377 -1.224959,-0.6309 -0.360911,-0.39949 -0.428859,-0.61465 -0.433132,-1.37157 -0.0032,-0.56404 0.03144,-0.82007 0.22322,-1.65081 0.124842,-0.54077 0.283687,-1.12794 0.352986,-1.30481 0.409615,-1.04546 1.344262,-1.81332 2.526521,-2.07567 0.377001,-0.0837 1.014143,-0.0969 4.653789,-0.0969 3.963976,0 4.218835,-0.006 4.247807,-0.1062 0.03241,-0.11169 0.121345,-0.47668 0.18484,-0.75862 l 0.03759,-0.16689 h -4.756266 -4.756266 l -0.206214,-0.13837 c -0.59748,-0.4009 -0.379549,-1.47633 0.395895,-1.95363 l 0.298665,-0.18384 6.923323,-0.0168 c 4.543696,-0.011 7.063652,0.005 7.331598,0.0459 1.240617,0.19049 1.851062,0.79139 1.912569,1.88268 0.02297,0.40754 -0.06377,0.87917 -0.828978,4.5072 -0.470047,2.22862 -0.854631,4.06522 -0.854631,4.08134 0,0.0161 -3.516168,0.0267 -7.813705,0.0236 -6.19957,-0.005 -7.896532,-0.0222 -8.214649,-0.0856 z m 9.322261,-2.35143 c 0.08036,-0.33563 0.515817,-2.38359 0.515817,-2.42592 0,-0.0259 -0.855759,-0.0472 -1.901688,-0.0472 h -1.901688 l -0.261026,1.22895 c -0.143564,0.67593 -0.273888,1.26309 -0.289608,1.30482 -0.02249,0.0597 0.380042,0.0759 1.888457,0.0759 h 1.91704 z m 9.437096,2.39287 c 0,-0.028 0.49158,-2.38225 1.092401,-5.23177 0.600821,-2.84951 1.092402,-5.20283 1.092402,-5.22959 0,-0.0268 3.599187,-0.0487 7.998193,-0.0487 8.706368,0 8.379193,-0.0123 8.973721,0.33608 0.548665,0.32148 0.64272,0.99927 0.246385,1.77557 -0.107274,0.21011 -0.550073,0.88505 -0.983999,1.49987 l -0.788957,1.11786 -3.599402,0.002 c -2.863331,0.002 -3.590281,-0.0133 -3.554791,-0.0737 0.02454,-0.0417 0.394835,-0.57372 0.822882,-1.18221 0.428049,-0.6085 0.77827,-1.12056 0.77827,-1.13792 0,-0.0174 -0.708125,-0.0316 -1.57361,-0.0316 h -1.573611 l -0.06706,0.31862 c -0.03688,0.17523 -0.428898,2.02549 -0.871147,4.11167 l -0.804091,3.79306 -3.593795,0.0157 c -1.976587,0.009 -3.593794,-0.007 -3.593794,-0.0352 z m 21.877215,-0.0393 c -0.458954,-0.0999 -0.722205,-0.21214 -1.030553,-0.43928 -0.49362,-0.3636 -0.744041,-1.15448 -0.633642,-2.00116 0.08623,-0.6614 1.127037,-5.41675 1.268042,-5.79361 0.362271,-0.96822 1.088372,-1.65387 2.126948,-2.00845 0.390892,-0.13345 0.434345,-0.13486 4.779257,-0.15405 2.411628,-0.0106 4.384778,-0.0409 4.384778,-0.0671 0,-0.0627 0.96467,-4.61776 1.0072,-4.75592 0.03065,-0.0996 0.25592,-0.1062 3.609252,-0.1062 2.820672,0 3.576602,0.016 3.576772,0.0759 0,0.0417 -0.728814,3.5101 -1.61985,7.7075 l -1.620061,7.63164 -7.741425,-0.005 c -6.14332,-0.004 -7.816831,-0.0212 -8.106718,-0.0844 z m 9.13485,-2.23627 c 0,-0.0106 0.2731,-1.29779 0.60689,-2.86042 0.333789,-1.56264 0.606889,-2.89216 0.606889,-2.95449 0,-0.10808 -0.08274,-0.11333 -1.786744,-0.11333 -1.151524,0 -1.800375,0.0221 -1.825081,0.062 -0.0343,0.0555 -1.241702,5.729 -1.242831,5.83997 0,0.025 0.81884,0.0455 1.820208,0.0455 1.001368,0 1.820669,-0.009 1.820669,-0.0193 z m 11.732222,2.23424 c -0.791827,-0.17212 -1.295127,-0.52363 -1.542853,-1.07755 -0.121099,-0.27078 -0.141727,-0.41292 -0.138644,-0.95535 0.0032,-0.56698 0.0619,-0.90484 0.532297,-3.06479 0.290773,-1.33516 0.570707,-2.59142 0.622074,-2.79169 0.23517,-0.91691 0.898512,-1.7298 1.732597,-2.12318 0.956865,-0.45129 0.438211,-0.4214 7.666209,-0.44187 4.28479,-0.0121 6.63261,0.003 6.902,0.0447 0.9599,0.14837 1.61077,0.60082 1.82413,1.26801 0.18443,0.57673 0.1414,0.95999 -0.39449,3.51299 l -0.49999,2.38205 h -5.50776 -5.50774 l -0.0315,0.13655 c -0.0173,0.0751 -0.07,0.30723 -0.11716,0.51585 l -0.0857,0.37931 3.95457,0.003 c 2.89811,0.003 4.01076,0.0228 4.16489,0.0759 0.45206,0.15571 0.63876,0.84306 0.37135,1.36722 -0.1603,0.31421 -0.61252,0.7159 -0.89393,0.79404 -0.37556,0.10428 -12.562887,0.0804 -13.050402,-0.0256 z m 10.232,-6.72112 c 0.1418,-0.64254 0.27221,-1.22971 0.2898,-1.30481 l 0.032,-0.13655 h -1.91828 c -1.05506,0 -1.91828,0.0131 -1.91828,0.029 0,0.016 -0.1229,0.59156 -0.2731,1.27911 -0.15021,0.68755 -0.2731,1.26165 -0.2731,1.27579 0,0.0141 0.8557,0.0257 1.90157,0.0257 h 1.90158 z m 8.51379,6.70613 c 0.0145,-0.0584 0.51578,-2.42073 1.11402,-5.24959 l 1.08772,-5.14339 h 7.8649 c 5.48843,0 7.96557,0.0202 8.19804,0.0669 0.77977,0.1566 1.34966,0.64136 1.54534,1.31445 0.17213,0.5921 0.0975,1.08857 -0.76431,5.08202 -0.43938,2.03612 -0.81405,3.77713 -0.83261,3.86892 l -0.0337,0.1669 h -3.6075 c -3.40686,0 -3.60579,-0.006 -3.57701,-0.10621 0.0168,-0.0584 0.40251,-1.8677 0.8572,-4.02064 0.4547,-2.15294 0.84066,-3.96223 0.85769,-4.02065 0.029,-0.0995 -0.0876,-0.1062 -1.85599,-0.1062 h -1.88694 l -0.0485,0.13655 c -0.0267,0.0751 -0.42831,1.93218 -0.89248,4.12685 l -0.84393,3.9903 h -3.60409 c -3.40202,0 -3.60261,-0.006 -3.57778,-0.10621 z"
       id="path854" />
  </g>
</svg>
